<?xml version="1.0" encoding="UTF-8" standalone="no"?>
<!-- Created with Inkscape (http://www.inkscape.org/) -->

<svg
   xmlns:dc="http://purl.org/dc/elements/1.1/"
   xmlns:cc="http://creativecommons.org/ns#"
   xmlns:rdf="http://www.w3.org/1999/02/22-rdf-syntax-ns#"
   xmlns:svg="http://www.w3.org/2000/svg"
   xmlns="http://www.w3.org/2000/svg"
   xmlns:sodipodi="http://sodipodi.sourceforge.net/DTD/sodipodi-0.dtd"
   xmlns:inkscape="http://www.inkscape.org/namespaces/inkscape"
   version="1.1"
   id="svg2"
   xml:space="preserve"
   width="387.05692"
   height="85.509544"
   viewBox="0 0 387.05691 85.509543"
   sodipodi:docname="Logotype.svg"
   inkscape:version="0.92.4 (5da689c313, 2019-01-14)"><metadata
     id="metadata8"><rdf:RDF><cc:Work
         rdf:about=""><dc:format>image/svg+xml</dc:format><dc:type
           rdf:resource="http://purl.org/dc/dcmitype/StillImage" /><dc:title></dc:title></cc:Work></rdf:RDF></metadata><defs
     id="defs6"><clipPath
       clipPathUnits="userSpaceOnUse"
       id="clipPath26"><path
         d="M 0,841.89 H 595.276 V 0 H 0 Z"
         id="path24"
         inkscape:connector-curvature="0" /></clipPath></defs><sodipodi:namedview
     pagecolor="#ffffff"
     bordercolor="#666666"
     borderopacity="1"
     objecttolerance="10"
     gridtolerance="10"
     guidetolerance="10"
     inkscape:pageopacity="0"
     inkscape:pageshadow="2"
     inkscape:window-width="1920"
     inkscape:window-height="1001"
     id="namedview4"
     showgrid="false"
     fit-margin-top="0"
     fit-margin-left="0"
     fit-margin-right="0"
     fit-margin-bottom="0"
     inkscape:zoom="0.42048248"
     inkscape:cx="1123.3988"
     inkscape:cy="34.49879"
     inkscape:window-x="-9"
     inkscape:window-y="-9"
     inkscape:window-maximized="1"
     inkscape:current-layer="g10" /><g
     id="g10"
     inkscape:groupmode="layer"
     inkscape:label="Logotype_05"
     transform="matrix(1.3333333,0,0,-1.3333333,-203.06773,604.20572)"><g
       id="g12"
       transform="translate(428.4395,432.3243)"><path
         d="m 0,0 h -5.326 v -10.797 h -6.045 V 0 h -5.688 v -10.797 h -8.035 v -5.041 h 39.248 v 5.041 H 0.379 V 0 Z"
         style="fill:#76777b;fill-opacity:1;fill-rule:nonzero;stroke:none"
         id="path14"
         inkscape:connector-curvature="0" /></g><g
       id="g16"
       transform="translate(439.0859,427.1818)"><path
         d="m 0,0 v 22.25 h -0.377 -33.617 v -5.029 h 28.31 L -5.684,0 Z"
         style="fill:#76777b;fill-opacity:1;fill-rule:nonzero;stroke:none"
         id="path18"
         inkscape:connector-curvature="0" /></g><g
       id="g20"><g
         id="g22"
         clip-path="url(#clipPath26)"><g
           id="g28"
           transform="translate(174.6289,419.8575)"><path
             d="M 0,0 C 0,3 2.697,5.445 6.003,5.445 9.322,5.445 12.019,3 12.019,0 12.019,-2.992 9.322,-5.441 6.009,-5.461 2.697,-5.441 0,-2.992 0,0 m -5.454,-0.072 c 0,-5.631 5.099,-10.211 11.364,-10.211 6.279,0 11.391,4.58 11.391,10.211 0,5.638 -5.112,10.232 -11.391,10.232 -6.265,0 -11.364,-4.594 -11.364,-10.232"
             style="fill:#76777b;fill-opacity:1;fill-rule:nonzero;stroke:none"
             id="path30"
             inkscape:connector-curvature="0" /></g><g
           id="g32"
           transform="translate(191.7139,450.2697)"><path
             d="m 0,0 h -5.288 v -6.443 h -6.697 v -4.996 h 6.697 V -19.9 H 0.375 V 0 Z"
             style="fill:#76777b;fill-opacity:1;fill-rule:nonzero;stroke:none"
             id="path34"
             inkscape:connector-curvature="0" /></g><g
           id="g36"
           transform="translate(166.2788,450.3927)"><path
             d="m 0,0 c 0,0 -13.558,-15.76 -13.978,-16.252 0.438,-0.359 3.972,-3.242 4.402,-3.59 0.399,0.487 9.849,11.807 9.849,11.807 0,0 8.858,-10.754 9.249,-11.246 0.431,0.355 3.966,3.234 4.405,3.595 C 13.513,-15.201 0.761,-0.221 0.289,0.336 0.142,0.172 0,0.006 0,0"
             style="fill:#76777b;fill-opacity:1;fill-rule:nonzero;stroke:none"
             id="path38"
             inkscape:connector-curvature="0" /></g><g
           id="g40"
           transform="translate(306.168,421.4493)"><path
             d="m 0,0 h 23.723 v -8.676 h 5.756 v 20.994 h 3.345 V -8.656 h 5.697 V 28.916 H 38.152 32.824 V 17.367 H 29.479 V 28.916 H 23.723 V 5.055 H 5.656 v 18.359 h 13.35 v 4.758 H 18.924 0.021 Z"
             style="fill:#76777b;fill-opacity:1;fill-rule:nonzero;stroke:none"
             id="path42"
             inkscape:connector-curvature="0" /></g><g
           id="g44"
           transform="translate(211.5864,426.2501)"><path
             d="m 0,0 h -5.75 v -13.381 h 34.994 v 5.098 L 0,-8.283 Z M 30.484,8.592 H 28.519 V 23.428 H 28.14 -5.769 v -5.1 h 28.53 V 8.592 H -8.335 V 3.506 H 3.88 v -6.695 h 5.83 v 6.695 h 5.196 v -6.695 h 5.838 v 6.695 h 10.117 v 5.086 z"
             style="fill:#76777b;fill-opacity:1;fill-rule:nonzero;stroke:none"
             id="path46"
             inkscape:connector-curvature="0" /></g><g
           id="g48"
           transform="translate(290.7715,443.795)"><path
             d="M 0,0 V 6.57 H -0.371 -5.738 V -8.961 h -5.828 V 5.883 h -0.373 -24.088 v -5.1 h 18.701 v -9.744 h -5.785 v 5.432 h -0.366 -5.468 v -5.432 h -8.883 v -5.105 h 32.09 v -5.959 H 0 V -5.061 H 5.881 V 0 Z m -29.221,-17.545 h -0.371 -5.377 V -30.926 H 0.277 v 5.098 h -29.498 z"
             style="fill:#76777b;fill-opacity:1;fill-rule:nonzero;stroke:none"
             id="path50"
             inkscape:connector-curvature="0" /></g><g
           id="g52"
           transform="translate(392.1973,450.3575)"><path
             d="m 0,0 h -5.295 v -22.113 h 5.678 v 10.666 h 5.763 v 4.994 H 0.383 V 0 Z"
             style="fill:#76777b;fill-opacity:1;fill-rule:nonzero;stroke:none"
             id="path54"
             inkscape:connector-curvature="0" /></g><g
           id="g56"
           transform="translate(392.1445,425.6271)"><path
             d="m 0,0 h -35.369 v -5.045 h 30.062 v -7.713 H 0.371 V 0 Z"
             style="fill:#76777b;fill-opacity:1;fill-rule:nonzero;stroke:none"
             id="path58"
             inkscape:connector-curvature="0" /></g><g
           id="g60"
           transform="translate(367.7812,433.7423)"><path
             d="m 0,0 c -3.051,0 -5.52,2.348 -5.52,5.23 0,2.887 2.469,5.227 5.52,5.227 3.045,0 5.516,-2.34 5.516,-5.227 C 5.516,2.348 3.045,0 0,0 M 13.248,15.932 H 2.705 c -0.012,0.004 -0.017,0.004 -0.033,0.009 v 3.471 h -5.754 v -3.48 h -10.709 v -4.821 h 3.865 c -1.094,-1.672 -1.742,-3.634 -1.742,-5.752 0,-6.029 5.164,-10.92 11.527,-10.92 6.37,0 11.534,4.891 11.534,10.92 0,2.118 -0.651,4.08 -1.743,5.752 h 3.598 z"
             style="fill:#76777b;fill-opacity:1;fill-rule:nonzero;stroke:none"
             id="path62"
             inkscape:connector-curvature="0" /></g><g
           id="g64"
           transform="translate(413.4414,402.0607)"><path
             d="m 0,0 -1.025,-1.717 c -0.856,1.766 -2.641,1.779 -2.641,1.779 -1.387,0.038 -2.373,-0.798 -2.336,-1.988 0.045,-1.57 1.445,-2.113 3.07,-2.738 1.741,-0.678 3.575,-1.738 3.756,-3.93 0.221,-2.652 -2.084,-4.506 -5.316,-4.443 -3.147,0.057 -4.707,2.193 -4.707,2.193 l 0.879,2.018 c 0,0 0.994,-2.785 4.373,-2.883 1.508,-0.043 2.644,1.082 2.595,2.551 -0.044,1.57 -1.4,2.097 -2.978,2.707 -1.762,0.68 -3.764,1.455 -3.836,3.957 -0.074,2.443 1.828,3.971 4.84,3.89 0,0 1.93,0.004 3.326,-1.396"
             style="fill:#76777b;fill-opacity:1;fill-rule:nonzero;stroke:none"
             id="path66"
             inkscape:connector-curvature="0" /></g><g
           id="g68"
           transform="translate(170.1724,402.0607)"><path
             d="M 0,0 -1.025,-1.717 C -1.88,0.049 -3.661,0.062 -3.661,0.062 -5.053,0.1 -6.037,-0.736 -5.999,-1.926 c 0.046,-1.57 1.451,-2.113 3.068,-2.738 1.744,-0.678 3.579,-1.738 3.758,-3.93 0.223,-2.652 -2.082,-4.506 -5.316,-4.443 -3.145,0.057 -4.704,2.193 -4.704,2.193 l 0.875,2.018 c 0,0 0.985,-2.785 4.377,-2.883 1.501,-0.043 2.638,1.082 2.595,2.551 -0.051,1.57 -1.404,2.097 -2.981,2.707 -1.762,0.68 -3.762,1.455 -3.839,3.957 -0.073,2.443 1.826,3.971 4.843,3.89 0,0 1.93,0.004 3.323,-1.396"
             style="fill:#76777b;fill-opacity:1;fill-rule:nonzero;stroke:none"
             id="path70"
             inkscape:connector-curvature="0" /></g><g
           id="g72"
           transform="translate(215.0962,401.9181)"><path
             d="m 0,0 -0.161,0.113 c -0.306,0.194 -2.087,1.309 -5.151,1.309 -4.709,0 -7.623,-2.793 -7.623,-7.119 0,-4.416 2.75,-7.063 7.353,-7.063 1.798,0 3.585,0.303 5.318,0.903 l 0.16,0.056 v 5.373 h -2.185 l 0.006,-4.529 c -0.963,-0.463 -2.02,-0.578 -2.76,-0.578 -3.559,0 -5.514,2.107 -5.514,5.935 0,3.58 1.895,5.799 5.161,5.799 1.644,0 3.41,-0.707 4.404,-1.844 l 0.076,-0.078 z"
             style="fill:#76777b;fill-opacity:1;fill-rule:nonzero;stroke:none"
             id="path74"
             inkscape:connector-curvature="0" /></g><g
           id="g76"
           transform="translate(241.1113,403.0743)"><path
             d="m 0,0 h -2.143 l -3.531,-6.285 -3.541,6.293 h -2.726 l 4.933,-7.967 v -5.719 h 2.182 v 5.889 z"
             style="fill:#76777b;fill-opacity:1;fill-rule:nonzero;stroke:none"
             id="path78"
             inkscape:connector-curvature="0" /></g><g
           id="g80"
           transform="translate(441.3398,403.0743)"><path
             d="m 0,0 h -2.139 l -3.535,-6.285 -3.543,6.293 h -2.715 l 4.93,-7.967 v -5.719 h 2.18 c 0,0 -0.004,5.77 -0.004,5.889 z"
             style="fill:#76777b;fill-opacity:1;fill-rule:nonzero;stroke:none"
             id="path82"
             inkscape:connector-curvature="0" /></g><g
           id="g84"
           transform="translate(224.1016,396.7404)"><path
             d="M 0,0 6.32,6.342 H 4.094 L -1.842,0.377 c 0,0.414 0.002,5.965 0.002,5.965 H -4.025 V -7.344 h 2.193 l -0.008,6.631 5.559,-6.635 2.777,0.002 z"
             style="fill:#76777b;fill-opacity:1;fill-rule:nonzero;stroke:none"
             id="path86"
             inkscape:connector-curvature="0" /></g><g
           id="g88"
           transform="translate(278.5195,396.7404)"><path
             d="M 0,0 6.311,6.342 H 4.086 L -1.848,0.377 c 0,0.414 0.012,5.965 0.012,5.965 H -4.025 V -7.346 h 2.189 v 6.633 l 5.559,-6.633 2.773,0.002 z"
             style="fill:#76777b;fill-opacity:1;fill-rule:nonzero;stroke:none"
             id="path90"
             inkscape:connector-curvature="0" /></g><g
           id="g92"
           transform="translate(288.668,389.3947)"><path
             d="M 0,0 H 1.643 L 5.277,10.51 8.67,0.002 10.559,0 15.121,13.691 H 13.227 L 9.557,2.871 6.059,13.691 h -1.25 l -3.633,-10.8 -3.248,10.797 -2.315,0.003 z"
             style="fill:#76777b;fill-opacity:1;fill-rule:nonzero;stroke:none"
             id="path94"
             inkscape:connector-curvature="0" /></g><g
           id="g96"
           transform="translate(308.3984,400.1622)"><path
             d="m 0,0 c 0.334,-0.766 1.404,-3.754 1.627,-4.275 h -3.359 z m 0.713,3.111 h -0.969 l -5.875,-13.869 1.883,-0.008 2.15,5.198 h 4.225 l 2.084,-5.2 h 2.576 z"
             style="fill:#76777b;fill-opacity:1;fill-rule:nonzero;stroke:none"
             id="path98"
             inkscape:connector-curvature="0" /></g><g
           id="g100"
           transform="translate(366.5371,403.0763)"><path
             d="M 0,0 0.004,-13.68 H 2.182 L 2.174,0 Z"
             style="fill:#76777b;fill-opacity:1;fill-rule:nonzero;stroke:none"
             id="path102"
             inkscape:connector-curvature="0" /></g><path
           d="m 416.711,389.397 h 2.176 v 13.68 h -2.176 z"
           style="fill:#76777b;fill-opacity:1;fill-rule:nonzero;stroke:none"
           id="path104"
           inkscape:connector-curvature="0" /><g
           id="g106"
           transform="translate(346.1113,395.4181)"><path
             d="m 0,0 c 0,-3.375 -1.404,-4.887 -3.998,-4.887 -2.939,0 -3.951,1.328 -3.951,4.907 v 7.632 h -2.168 l 0.006,-7.826 c 0.019,-1.683 0.203,-3.49 1.451,-4.619 1.08,-0.978 2.568,-1.455 4.498,-1.455 3.672,0 5.719,2.027 5.719,5.771 v 8.141 h -1.561 z"
             style="fill:#76777b;fill-opacity:1;fill-rule:nonzero;stroke:none"
             id="path108"
             inkscape:connector-curvature="0" /></g><g
           id="g110"
           transform="translate(252.0371,395.4181)"><path
             d="m 0,0 c 0,-3.375 -1.41,-4.887 -4.006,-4.887 -2.931,0 -3.943,1.328 -3.943,4.907 v 7.632 h -2.17 l 0.004,-7.826 c 0.021,-1.683 0.207,-3.49 1.457,-4.619 1.078,-0.978 2.568,-1.455 4.49,-1.455 3.676,0 5.723,2.027 5.723,5.771 v 8.141 h -1.561 z"
             style="fill:#76777b;fill-opacity:1;fill-rule:nonzero;stroke:none"
             id="path112"
             inkscape:connector-curvature="0" /></g><g
           id="g114"
           transform="translate(183.0371,395.4181)"><path
             d="m 0,0 c 0,-3.375 -1.403,-4.887 -4.004,-4.887 -2.933,0 -3.94,1.328 -3.94,4.907 v 7.632 h -2.171 l 0.005,-7.826 c 0.023,-1.683 0.203,-3.49 1.455,-4.619 1.075,-0.978 2.566,-1.523 4.488,-1.523 3.675,0 5.722,2.095 5.722,5.839 v 8.141 h -1.563 z"
             style="fill:#76777b;fill-opacity:1;fill-rule:nonzero;stroke:none"
             id="path116"
             inkscape:connector-curvature="0" /></g><g
           id="g118"
           transform="translate(375.7969,389.3947)"><path
             d="M 0,0 H 1.238 L 6.986,13.688 H 5.004 L 0.691,2.803 -3.621,13.682 h -2.438 z"
             style="fill:#76777b;fill-opacity:1;fill-rule:nonzero;stroke:none"
             id="path120"
             inkscape:connector-curvature="0" /></g><g
           id="g122"
           transform="translate(386.1152,390.9806)"><path
             d="m 0,0 v 5.004 l 4.742,0.01 V 6.4 L 0,6.398 v 4.522 h 5.166 v 1.174 l -7.34,0.002 V -1.588 H 5.289 V 0 Z"
             style="fill:#76777b;fill-opacity:1;fill-rule:nonzero;stroke:none"
             id="path124"
             inkscape:connector-curvature="0" /></g><g
           id="g126"
           transform="translate(420.3437,403.0822)"><path
             d="M 0,0 V -1.143 H 4.248 V -13.686 H 6.42 v 12.538 l 4.07,0.005 -0.006,1.147 z"
             style="fill:#76777b;fill-opacity:1;fill-rule:nonzero;stroke:none"
             id="path128"
             inkscape:connector-curvature="0" /></g><g
           id="g130"
           transform="translate(396.3125,397.3341)"><path
             d="M 0,0 V 4.564 L 2.074,4.566 C 3.793,4.566 4.52,3.559 4.477,2.322 4.424,1.035 3.754,0.062 1.807,0.006 Z M -2.166,-7.943 0.004,-7.955 0,-1.297 5.879,-7.953 h 2.322 l -5.842,6.648 c 2.26,0.086 4.245,1.651 4.245,3.633 0,2.264 -1.415,3.414 -4.458,3.414 h -4.318 z"
             style="fill:#76777b;fill-opacity:1;fill-rule:nonzero;stroke:none"
             id="path132"
             inkscape:connector-curvature="0" /></g><g
           id="g134"
           transform="translate(199.7661,403.0763)"><path
             d="m 0,0 h -1.57 v -9.734 c -3.393,3.627 -9.444,9.732 -9.444,9.732 L -12.123,0 v -13.68 h 1.565 v 10.25 l 9.626,-10.25 0.941,-0.002 z"
             style="fill:#76777b;fill-opacity:1;fill-rule:nonzero;stroke:none"
             id="path136"
             inkscape:connector-curvature="0" /></g><g
           id="g138"
           transform="translate(268.9062,403.0763)"><path
             d="m 0,0 h -1.566 v -9.734 c -3.391,3.627 -9.444,9.732 -9.444,9.732 L -12.117,0 v -13.68 h 1.562 v 10.25 l 9.627,-10.25 0.938,-0.002 z"
             style="fill:#76777b;fill-opacity:1;fill-rule:nonzero;stroke:none"
             id="path140"
             inkscape:connector-curvature="0" /></g><g
           id="g142"
           transform="translate(328.4082,403.0763)"><path
             d="m 0,0 h -1.564 v -9.734 c -3.395,3.627 -9.452,9.732 -9.452,9.732 L -12.121,0 v -13.68 h 1.56 v 10.25 l 9.633,-10.25 0.932,-0.002 z"
             style="fill:#76777b;fill-opacity:1;fill-rule:nonzero;stroke:none"
             id="path144"
             inkscape:connector-curvature="0" /></g><g
           id="g146"
           transform="translate(363.0078,403.0763)"><path
             d="m 0,0 h -1.559 v -9.734 c -3.398,3.627 -9.451,9.732 -9.451,9.732 L -12.121,0 v -13.68 h 1.572 v 10.25 l 9.619,-10.25 0.938,-0.002 z"
             style="fill:#76777b;fill-opacity:1;fill-rule:nonzero;stroke:none"
             id="path148"
             inkscape:connector-curvature="0" /></g></g></g></g></svg>